<svg xmlns="http://www.w3.org/2000/svg" xmlns:xlink="http://www.w3.org/1999/xlink" width="483" zoomAndPan="magnify" viewBox="0 0 362.25 177.749994" height="237" preserveAspectRatio="xMidYMid meet" version="1.0"><defs><g/><clipPath id="baf7cd6bc7"><path d="M 83 129 L 153 129 L 153 177.441406 L 83 177.441406 Z M 83 129 " clip-rule="nonzero"/></clipPath></defs><path fill="#f68712" d="M 62.058594 50.144531 C 59.441406 51.796875 56.054688 53.378906 51.777344 54.808594 C 42.273438 57.984375 32.265625 56.402344 22.753906 58.9375 C 20.347656 59.578125 16.773438 61.289062 14.601562 63.53125 C 14.601562 63.53125 21.238281 50.925781 40.566406 43.402344 C 42.3125 42.71875 44.160156 42.082031 46.113281 41.5 C 57.988281 37.953125 54.644531 32.960938 49.449219 34.429688 C 49.449219 34.429688 53.75 31.394531 59.851562 31.625 C 69.046875 31.976562 75.183594 41.878906 62.058594 50.144531 " fill-opacity="1" fill-rule="nonzero"/><path fill="#f68712" d="M 109.285156 50.222656 C 107.371094 58.292969 101.515625 65.378906 94.898438 71.070312 C 87.578125 77.375 79.324219 81.96875 74.488281 84.285156 C 42.933594 99.414062 11.261719 93.746094 7.507812 109.167969 C 7.507812 109.167969 -0.00390625 95.300781 17.710938 85.472656 C 27.464844 80.0625 32.933594 77.265625 55.707031 68.988281 C 62.585938 66.484375 70.980469 63.433594 78.410156 58.546875 C 83.472656 55.214844 88.089844 51.03125 91.476562 45.589844 C 97.332031 36.167969 89.941406 26.816406 76.5625 26.023438 C 96.9375 24.882812 112.746094 35.621094 109.285156 50.222656 " fill-opacity="1" fill-rule="nonzero"/><path fill="#3871c1" d="M 120.847656 106.222656 C 114.28125 111.304688 106.164062 116.097656 96.410156 120.421875 C 58.933594 137.03125 27.796875 133.394531 20.546875 149.277344 C 20.546875 149.277344 10.625 128.449219 45.214844 117.160156 C 75.632812 107.238281 96.570312 97.683594 110.332031 88.585938 C 140.34375 68.75 136.222656 51.0625 121.796875 36.332031 C 122.65625 36.851562 123.480469 37.359375 124.226562 37.835938 C 148.664062 55.011719 150.265625 83.472656 120.847656 106.222656 " fill-opacity="1" fill-rule="nonzero"/><path fill="#40b93c" d="M 150.910156 121.132812 C 146.636719 128.617188 140.367188 134.875 132.863281 140.167969 C 123.863281 146.519531 113.070312 151.492188 101.789062 155.539062 C 86.972656 160.855469 50.578125 165.285156 49.402344 173.785156 C 49.402344 173.785156 44.765625 165.136719 61.226562 156.710938 C 80.125 147.039062 100.019531 139.484375 118.78125 129.519531 C 120.609375 128.546875 124.125 126.769531 128.253906 124.140625 C 141.078125 115.980469 159.832031 99.605469 152.519531 73.625 C 152.789062 74.03125 166.15625 94.457031 150.910156 121.132812 " fill-opacity="1" fill-rule="nonzero"/><g clip-path="url(#baf7cd6bc7)"><path fill="#40b93c" d="M 152.277344 129 C 152.277344 129 151.519531 140.199219 135.753906 154.648438 C 135.710938 154.6875 135.667969 154.726562 135.625 154.765625 C 127.183594 162.476562 117.011719 168.046875 108.332031 171.699219 C 94.96875 177.324219 83.195312 177.421875 83.074219 177.460938 C 97.800781 172.839844 119.316406 160.648438 134.632812 148.382812 C 143.226562 141.5 149.875 134.597656 152.277344 129 " fill-opacity="1" fill-rule="nonzero"/></g><path fill="#fbc108" d="M 62.058594 50.144531 C 54.585938 47.027344 47.289062 44.875 40.566406 43.402344 C 42.3125 42.71875 44.160156 42.082031 46.113281 41.5 C 57.988281 37.953125 54.644531 32.960938 49.449219 34.429688 C 49.449219 34.429688 53.75 31.394531 59.851562 31.625 C 69.046875 31.976562 75.183594 41.878906 62.058594 50.144531 " fill-opacity="1" fill-rule="nonzero"/><path fill="#fbc108" d="M 109.285156 50.222656 C 107.371094 58.292969 101.515625 65.378906 94.898438 71.070312 C 89.566406 66.164062 84.019531 62.027344 78.410156 58.546875 C 83.472656 55.214844 88.089844 51.03125 91.476562 45.589844 C 97.332031 36.167969 89.941406 26.816406 76.5625 26.023438 C 96.9375 24.882812 112.746094 35.621094 109.285156 50.222656 " fill-opacity="1" fill-rule="nonzero"/><path fill="#00adef" d="M 120.847656 106.222656 C 117.640625 99.730469 114.109375 93.871094 110.332031 88.585938 C 140.34375 68.75 136.222656 51.0625 121.796875 36.332031 C 122.65625 36.851562 123.480469 37.359375 124.226562 37.835938 C 148.664062 55.011719 150.265625 83.472656 120.847656 106.222656 " fill-opacity="1" fill-rule="nonzero"/><path fill="#80cc28" d="M 152.277344 129 C 152.277344 129 151.519531 140.199219 135.753906 154.648438 C 135.40625 152.519531 135.03125 150.429688 134.632812 148.382812 C 143.226562 141.5 149.875 134.597656 152.277344 129 " fill-opacity="1" fill-rule="nonzero"/><path fill="#80cc28" d="M 132.863281 140.167969 C 131.515625 134.511719 129.972656 129.175781 128.253906 124.140625 C 141.078125 115.980469 159.832031 99.605469 152.519531 73.625 C 152.789062 74.03125 166.15625 94.457031 150.910156 121.132812 C 146.636719 128.617188 140.367188 134.875 132.863281 140.167969 " fill-opacity="1" fill-rule="nonzero"/><g fill="#01adef" fill-opacity="1"><g transform="translate(164.084181, 97.711094)"><g><path d="M 57.265625 -46.90625 L 57.265625 0 L 45.828125 0 L 45.828125 -28.125 L 35.34375 0 L 26.125 0 L 15.5625 -28.1875 L 15.5625 0 L 4.140625 0 L 4.140625 -46.90625 L 17.640625 -46.90625 L 30.796875 -14.4375 L 43.828125 -46.90625 Z M 57.265625 -46.90625 "/></g></g></g><g fill="#01adef" fill-opacity="1"><g transform="translate(226.742084, 97.711094)"><g><path d="M 37.875 -46.90625 L 37.875 -37.75 L 25.453125 -37.75 L 25.453125 0 L 14.03125 0 L 14.03125 -37.75 L 1.609375 -37.75 L 1.609375 -46.90625 Z M 37.875 -46.90625 "/></g></g></g><g fill="#01adef" fill-opacity="1"><g transform="translate(267.556624, 97.711094)"><g><path d="M 15.296875 -14.296875 C 15.960938 -10.773438 18.015625 -9.015625 21.453125 -9.015625 C 23.804688 -9.015625 25.472656 -10.0625 26.453125 -12.15625 C 27.429688 -14.25 27.921875 -17.65625 27.921875 -22.375 C 26.941406 -21 25.601562 -19.929688 23.90625 -19.171875 C 22.21875 -18.421875 20.328125 -18.046875 18.234375 -18.046875 C 15.390625 -18.046875 12.851562 -18.632812 10.625 -19.8125 C 8.394531 -20.988281 6.644531 -22.742188 5.375 -25.078125 C 4.101562 -27.421875 3.46875 -30.265625 3.46875 -33.609375 C 3.46875 -36.898438 4.144531 -39.769531 5.5 -42.21875 C 6.863281 -44.675781 8.800781 -46.570312 11.3125 -47.90625 C 13.832031 -49.238281 16.8125 -49.90625 20.25 -49.90625 C 26.832031 -49.90625 31.4375 -47.851562 34.0625 -43.75 C 36.695312 -39.65625 38.015625 -33.625 38.015625 -25.65625 C 38.015625 -19.863281 37.488281 -15.082031 36.4375 -11.3125 C 35.394531 -7.550781 33.632812 -4.691406 31.15625 -2.734375 C 28.6875 -0.773438 25.316406 0.203125 21.046875 0.203125 C 17.660156 0.203125 14.773438 -0.460938 12.390625 -1.796875 C 10.003906 -3.140625 8.175781 -4.898438 6.90625 -7.078125 C 5.644531 -9.265625 4.925781 -11.671875 4.75 -14.296875 Z M 20.84375 -27.0625 C 22.71875 -27.0625 24.210938 -27.628906 25.328125 -28.765625 C 26.441406 -29.898438 27 -31.445312 27 -33.40625 C 27 -35.539062 26.414062 -37.1875 25.25 -38.34375 C 24.09375 -39.507812 22.535156 -40.09375 20.578125 -40.09375 C 18.617188 -40.09375 17.070312 -39.5 15.9375 -38.3125 C 14.800781 -37.132812 14.234375 -35.519531 14.234375 -33.46875 C 14.234375 -31.550781 14.800781 -30.003906 15.9375 -28.828125 C 17.070312 -27.648438 18.707031 -27.0625 20.84375 -27.0625 Z M 20.84375 -27.0625 "/></g></g></g><g fill="#222222" fill-opacity="1"><g transform="translate(166.329532, 126.311709)"><g><path d="M 18.171875 0 L 14.34375 0 L 5.703125 -13.0625 L 5.703125 0 L 1.875 0 L 1.875 -19.0625 L 5.703125 -19.0625 L 14.34375 -5.96875 L 14.34375 -19.0625 L 18.171875 -19.0625 Z M 18.171875 0 "/></g></g></g><g fill="#222222" fill-opacity="1"><g transform="translate(184.963544, 126.311709)"><g><path d="M 10.71875 0.1875 C 8.9375 0.1875 7.300781 -0.226562 5.8125 -1.0625 C 4.320312 -1.894531 3.140625 -3.050781 2.265625 -4.53125 C 1.390625 -6.019531 0.953125 -7.703125 0.953125 -9.578125 C 0.953125 -11.429688 1.390625 -13.097656 2.265625 -14.578125 C 3.140625 -16.066406 4.320312 -17.226562 5.8125 -18.0625 C 7.300781 -18.894531 8.9375 -19.3125 10.71875 -19.3125 C 12.519531 -19.3125 14.160156 -18.894531 15.640625 -18.0625 C 17.128906 -17.226562 18.304688 -16.066406 19.171875 -14.578125 C 20.035156 -13.097656 20.46875 -11.429688 20.46875 -9.578125 C 20.46875 -7.703125 20.035156 -6.019531 19.171875 -4.53125 C 18.304688 -3.050781 17.125 -1.894531 15.625 -1.0625 C 14.132812 -0.226562 12.5 0.1875 10.71875 0.1875 Z M 10.71875 -3.21875 C 11.863281 -3.21875 12.875 -3.476562 13.75 -4 C 14.625 -4.519531 15.304688 -5.257812 15.796875 -6.21875 C 16.285156 -7.1875 16.53125 -8.304688 16.53125 -9.578125 C 16.53125 -10.847656 16.285156 -11.957031 15.796875 -12.90625 C 15.304688 -13.863281 14.625 -14.597656 13.75 -15.109375 C 12.875 -15.617188 11.863281 -15.875 10.71875 -15.875 C 9.570312 -15.875 8.554688 -15.617188 7.671875 -15.109375 C 6.796875 -14.597656 6.113281 -13.863281 5.625 -12.90625 C 5.132812 -11.957031 4.890625 -10.847656 4.890625 -9.578125 C 4.890625 -8.304688 5.132812 -7.1875 5.625 -6.21875 C 6.113281 -5.257812 6.796875 -4.519531 7.671875 -4 C 8.554688 -3.476562 9.570312 -3.21875 10.71875 -3.21875 Z M 10.71875 -3.21875 "/></g></g></g><g fill="#222222" fill-opacity="1"><g transform="translate(204.961717, 126.311709)"><g><path d="M 14.84375 -19.046875 L 14.84375 -15.953125 L 9.765625 -15.953125 L 9.765625 0 L 5.953125 0 L 5.953125 -15.953125 L 0.875 -15.953125 L 0.875 -19.046875 Z M 14.84375 -19.046875 "/></g></g></g><g fill="#222222" fill-opacity="1"><g transform="translate(219.284967, 126.311709)"><g><path d="M 5.703125 -19.046875 L 5.703125 0 L 1.875 0 L 1.875 -19.046875 Z M 6.765625 -23 L 0.484375 -20.125 L 0.484375 -22.859375 L 6.765625 -26.109375 Z M 6.765625 -23 "/></g></g></g><g fill="#222222" fill-opacity="1"><g transform="translate(225.450523, 126.311709)"><g><path d="M 0.953125 -9.546875 C 0.953125 -11.421875 1.375 -13.097656 2.21875 -14.578125 C 3.0625 -16.066406 4.21875 -17.222656 5.6875 -18.046875 C 7.15625 -18.867188 8.796875 -19.28125 10.609375 -19.28125 C 12.734375 -19.28125 14.597656 -18.734375 16.203125 -17.640625 C 17.804688 -16.554688 18.925781 -15.050781 19.5625 -13.125 L 15.171875 -13.125 C 14.734375 -14.03125 14.117188 -14.707031 13.328125 -15.15625 C 12.535156 -15.613281 11.617188 -15.84375 10.578125 -15.84375 C 9.472656 -15.84375 8.488281 -15.582031 7.625 -15.0625 C 6.757812 -14.550781 6.085938 -13.820312 5.609375 -12.875 C 5.128906 -11.925781 4.890625 -10.816406 4.890625 -9.546875 C 4.890625 -8.296875 5.128906 -7.191406 5.609375 -6.234375 C 6.085938 -5.273438 6.757812 -4.535156 7.625 -4.015625 C 8.488281 -3.503906 9.472656 -3.25 10.578125 -3.25 C 11.617188 -3.25 12.535156 -3.476562 13.328125 -3.9375 C 14.117188 -4.40625 14.734375 -5.09375 15.171875 -6 L 19.5625 -6 C 18.925781 -4.050781 17.8125 -2.535156 16.21875 -1.453125 C 14.625 -0.378906 12.753906 0.15625 10.609375 0.15625 C 8.796875 0.15625 7.15625 -0.253906 5.6875 -1.078125 C 4.21875 -1.898438 3.0625 -3.046875 2.21875 -4.515625 C 1.375 -5.992188 0.953125 -7.671875 0.953125 -9.546875 Z M 0.953125 -9.546875 "/></g></g></g><g fill="#222222" fill-opacity="1"><g transform="translate(244.984877, 126.311709)"><g><path d="M 5.703125 -19.046875 L 5.703125 0 L 1.875 0 L 1.875 -19.046875 Z M 5.703125 -19.046875 "/></g></g></g><g fill="#222222" fill-opacity="1"><g transform="translate(251.150433, 126.311709)"><g><path d="M 13.5625 -3.625 L 5.96875 -3.625 L 4.71875 0 L 0.703125 0 L 7.5625 -19.0625 L 12 -19.0625 L 18.84375 0 L 14.8125 0 Z M 12.515625 -6.6875 L 9.765625 -14.65625 L 7.015625 -6.6875 Z M 12.515625 -6.6875 "/></g></g></g><g fill="#222222" fill-opacity="1"><g transform="translate(269.266059, 126.311709)"><g><path d="M 8.453125 0.1875 C 7.128906 0.1875 5.9375 -0.0351562 4.875 -0.484375 C 3.8125 -0.941406 2.96875 -1.597656 2.34375 -2.453125 C 1.726562 -3.304688 1.410156 -4.316406 1.390625 -5.484375 L 5.484375 -5.484375 C 5.535156 -4.703125 5.8125 -4.082031 6.3125 -3.625 C 6.8125 -3.175781 7.5 -2.953125 8.375 -2.953125 C 9.269531 -2.953125 9.96875 -3.164062 10.46875 -3.59375 C 10.976562 -4.019531 11.234375 -4.578125 11.234375 -5.265625 C 11.234375 -5.828125 11.0625 -6.289062 10.71875 -6.65625 C 10.375 -7.019531 9.941406 -7.304688 9.421875 -7.515625 C 8.898438 -7.722656 8.1875 -7.957031 7.28125 -8.21875 C 6.039062 -8.570312 5.035156 -8.925781 4.265625 -9.28125 C 3.492188 -9.644531 2.832031 -10.179688 2.28125 -10.890625 C 1.726562 -11.609375 1.453125 -12.570312 1.453125 -13.78125 C 1.453125 -14.90625 1.734375 -15.882812 2.296875 -16.71875 C 2.859375 -17.5625 3.644531 -18.203125 4.65625 -18.640625 C 5.675781 -19.085938 6.84375 -19.3125 8.15625 -19.3125 C 10.125 -19.3125 11.71875 -18.832031 12.9375 -17.875 C 14.164062 -16.925781 14.847656 -15.597656 14.984375 -13.890625 L 10.78125 -13.890625 C 10.738281 -14.546875 10.457031 -15.085938 9.9375 -15.515625 C 9.425781 -15.941406 8.742188 -16.15625 7.890625 -16.15625 C 7.140625 -16.15625 6.539062 -15.960938 6.09375 -15.578125 C 5.644531 -15.191406 5.421875 -14.632812 5.421875 -13.90625 C 5.421875 -13.40625 5.585938 -12.984375 5.921875 -12.640625 C 6.265625 -12.304688 6.6875 -12.035156 7.1875 -11.828125 C 7.6875 -11.617188 8.390625 -11.378906 9.296875 -11.109375 C 10.535156 -10.742188 11.546875 -10.378906 12.328125 -10.015625 C 13.109375 -9.648438 13.78125 -9.101562 14.34375 -8.375 C 14.914062 -7.644531 15.203125 -6.691406 15.203125 -5.515625 C 15.203125 -4.492188 14.9375 -3.546875 14.40625 -2.671875 C 13.875 -1.796875 13.097656 -1.097656 12.078125 -0.578125 C 11.066406 -0.0664062 9.859375 0.1875 8.453125 0.1875 Z M 8.453125 0.1875 "/></g></g></g><g fill="#222222" fill-opacity="1"><g transform="translate(284.462369, 126.311709)"><g/></g></g><g fill="#222222" fill-opacity="1"><g transform="translate(289.536587, 126.311709)"><g><path d="M 16.53125 0 L 14.453125 -2.046875 C 12.691406 -0.460938 10.539062 0.328125 8 0.328125 C 6.59375 0.328125 5.359375 0.0859375 4.296875 -0.390625 C 3.234375 -0.878906 2.410156 -1.5625 1.828125 -2.4375 C 1.242188 -3.320312 0.953125 -4.347656 0.953125 -5.515625 C 0.953125 -6.765625 1.304688 -7.890625 2.015625 -8.890625 C 2.722656 -9.890625 3.769531 -10.703125 5.15625 -11.328125 C 4.664062 -11.921875 4.3125 -12.492188 4.09375 -13.046875 C 3.875 -13.609375 3.765625 -14.207031 3.765625 -14.84375 C 3.765625 -15.71875 3.988281 -16.503906 4.4375 -17.203125 C 4.894531 -17.898438 5.546875 -18.445312 6.390625 -18.84375 C 7.242188 -19.25 8.234375 -19.453125 9.359375 -19.453125 C 10.503906 -19.453125 11.484375 -19.234375 12.296875 -18.796875 C 13.117188 -18.359375 13.726562 -17.773438 14.125 -17.046875 C 14.53125 -16.316406 14.707031 -15.507812 14.65625 -14.625 L 10.9375 -14.625 C 10.957031 -15.21875 10.8125 -15.675781 10.5 -16 C 10.195312 -16.320312 9.78125 -16.484375 9.25 -16.484375 C 8.738281 -16.484375 8.3125 -16.332031 7.96875 -16.03125 C 7.632812 -15.726562 7.46875 -15.34375 7.46875 -14.875 C 7.46875 -14.414062 7.601562 -13.960938 7.875 -13.515625 C 8.15625 -13.066406 8.601562 -12.519531 9.21875 -11.875 L 14.015625 -7.125 C 14.054688 -7.15625 14.082031 -7.1875 14.09375 -7.21875 C 14.113281 -7.257812 14.132812 -7.300781 14.15625 -7.34375 L 15.71875 -9.9375 L 19.703125 -9.9375 L 17.78125 -6.578125 C 17.414062 -5.867188 17.023438 -5.195312 16.609375 -4.5625 L 21.21875 0 Z M 8.109375 -2.84375 C 9.597656 -2.84375 10.914062 -3.367188 12.0625 -4.421875 L 7.359375 -9.0625 C 5.597656 -8.28125 4.71875 -7.171875 4.71875 -5.734375 C 4.71875 -4.910156 5.023438 -4.222656 5.640625 -3.671875 C 6.265625 -3.117188 7.085938 -2.84375 8.109375 -2.84375 Z M 8.109375 -2.84375 "/></g></g></g><g fill="#222222" fill-opacity="1"><g transform="translate(166.329532, 153.255923)"><g><path d="M 0.953125 -9.546875 C 0.953125 -11.421875 1.375 -13.097656 2.21875 -14.578125 C 3.0625 -16.066406 4.21875 -17.222656 5.6875 -18.046875 C 7.15625 -18.867188 8.796875 -19.28125 10.609375 -19.28125 C 12.734375 -19.28125 14.597656 -18.734375 16.203125 -17.640625 C 17.804688 -16.554688 18.925781 -15.050781 19.5625 -13.125 L 15.171875 -13.125 C 14.734375 -14.03125 14.117188 -14.707031 13.328125 -15.15625 C 12.535156 -15.613281 11.617188 -15.84375 10.578125 -15.84375 C 9.472656 -15.84375 8.488281 -15.582031 7.625 -15.0625 C 6.757812 -14.550781 6.085938 -13.820312 5.609375 -12.875 C 5.128906 -11.925781 4.890625 -10.816406 4.890625 -9.546875 C 4.890625 -8.296875 5.128906 -7.191406 5.609375 -6.234375 C 6.085938 -5.273438 6.757812 -4.535156 7.625 -4.015625 C 8.488281 -3.503906 9.472656 -3.25 10.578125 -3.25 C 11.617188 -3.25 12.535156 -3.476562 13.328125 -3.9375 C 14.117188 -4.40625 14.734375 -5.09375 15.171875 -6 L 19.5625 -6 C 18.925781 -4.050781 17.8125 -2.535156 16.21875 -1.453125 C 14.625 -0.378906 12.753906 0.15625 10.609375 0.15625 C 8.796875 0.15625 7.15625 -0.253906 5.6875 -1.078125 C 4.21875 -1.898438 3.0625 -3.046875 2.21875 -4.515625 C 1.375 -5.992188 0.953125 -7.671875 0.953125 -9.546875 Z M 0.953125 -9.546875 "/></g></g></g><g fill="#222222" fill-opacity="1"><g transform="translate(185.863886, 153.255923)"><g><path d="M 10.71875 0.1875 C 8.9375 0.1875 7.300781 -0.226562 5.8125 -1.0625 C 4.320312 -1.894531 3.140625 -3.050781 2.265625 -4.53125 C 1.390625 -6.019531 0.953125 -7.703125 0.953125 -9.578125 C 0.953125 -11.429688 1.390625 -13.097656 2.265625 -14.578125 C 3.140625 -16.066406 4.320312 -17.226562 5.8125 -18.0625 C 7.300781 -18.894531 8.9375 -19.3125 10.71875 -19.3125 C 12.519531 -19.3125 14.160156 -18.894531 15.640625 -18.0625 C 17.128906 -17.226562 18.304688 -16.066406 19.171875 -14.578125 C 20.035156 -13.097656 20.46875 -11.429688 20.46875 -9.578125 C 20.46875 -7.703125 20.035156 -6.019531 19.171875 -4.53125 C 18.304688 -3.050781 17.125 -1.894531 15.625 -1.0625 C 14.132812 -0.226562 12.5 0.1875 10.71875 0.1875 Z M 10.71875 -3.21875 C 11.863281 -3.21875 12.875 -3.476562 13.75 -4 C 14.625 -4.519531 15.304688 -5.257812 15.796875 -6.21875 C 16.285156 -7.1875 16.53125 -8.304688 16.53125 -9.578125 C 16.53125 -10.847656 16.285156 -11.957031 15.796875 -12.90625 C 15.304688 -13.863281 14.625 -14.597656 13.75 -15.109375 C 12.875 -15.617188 11.863281 -15.875 10.71875 -15.875 C 9.570312 -15.875 8.554688 -15.617188 7.671875 -15.109375 C 6.796875 -14.597656 6.113281 -13.863281 5.625 -12.90625 C 5.132812 -11.957031 4.890625 -10.847656 4.890625 -9.578125 C 4.890625 -8.304688 5.132812 -7.1875 5.625 -6.21875 C 6.113281 -5.257812 6.796875 -4.519531 7.671875 -4 C 8.554688 -3.476562 9.570312 -3.21875 10.71875 -3.21875 Z M 10.71875 -3.21875 "/></g></g></g><g fill="#222222" fill-opacity="1"><g transform="translate(205.862058, 153.255923)"><g><path d="M 22.640625 -19.046875 L 22.640625 0 L 18.828125 0 L 18.828125 -12.390625 L 13.71875 0 L 10.828125 0 L 5.703125 -12.390625 L 5.703125 0 L 1.875 0 L 1.875 -19.046875 L 6.21875 -19.046875 L 12.28125 -4.890625 L 18.328125 -19.046875 Z M 22.640625 -19.046875 "/></g></g></g><g fill="#222222" fill-opacity="1"><g transform="translate(228.970521, 153.255923)"><g><path d="M 5.703125 -15.953125 L 5.703125 -11.1875 L 12.109375 -11.1875 L 12.109375 -8.15625 L 5.703125 -8.15625 L 5.703125 -3.109375 L 12.9375 -3.109375 L 12.9375 0 L 1.875 0 L 1.875 -19.0625 L 12.9375 -19.0625 L 12.9375 -15.953125 Z M 10.25 -23 L 3.96875 -20.125 L 3.96875 -22.859375 L 10.25 -26.109375 Z M 10.25 -23 "/></g></g></g><g fill="#222222" fill-opacity="1"><g transform="translate(242.066027, 153.255923)"><g><path d="M 11.703125 0 L 7.5 -7.421875 L 5.703125 -7.421875 L 5.703125 0 L 1.875 0 L 1.875 -19.046875 L 9.03125 -19.046875 C 10.5 -19.046875 11.75 -18.785156 12.78125 -18.265625 C 13.820312 -17.742188 14.601562 -17.039062 15.125 -16.15625 C 15.644531 -15.28125 15.90625 -14.296875 15.90625 -13.203125 C 15.90625 -11.953125 15.539062 -10.820312 14.8125 -9.8125 C 14.082031 -8.800781 13 -8.101562 11.5625 -7.71875 L 16.125 0 Z M 5.703125 -10.28125 L 8.890625 -10.28125 C 9.929688 -10.28125 10.703125 -10.53125 11.203125 -11.03125 C 11.710938 -11.53125 11.96875 -12.226562 11.96875 -13.125 C 11.96875 -14 11.710938 -14.675781 11.203125 -15.15625 C 10.703125 -15.632812 9.929688 -15.875 8.890625 -15.875 L 5.703125 -15.875 Z M 5.703125 -10.28125 "/></g></g></g><g fill="#222222" fill-opacity="1"><g transform="translate(258.135406, 153.255923)"><g><path d="M 0.953125 -9.546875 C 0.953125 -11.421875 1.375 -13.097656 2.21875 -14.578125 C 3.0625 -16.066406 4.21875 -17.222656 5.6875 -18.046875 C 7.15625 -18.867188 8.796875 -19.28125 10.609375 -19.28125 C 12.734375 -19.28125 14.597656 -18.734375 16.203125 -17.640625 C 17.804688 -16.554688 18.925781 -15.050781 19.5625 -13.125 L 15.171875 -13.125 C 14.734375 -14.03125 14.117188 -14.707031 13.328125 -15.15625 C 12.535156 -15.613281 11.617188 -15.84375 10.578125 -15.84375 C 9.472656 -15.84375 8.488281 -15.582031 7.625 -15.0625 C 6.757812 -14.550781 6.085938 -13.820312 5.609375 -12.875 C 5.128906 -11.925781 4.890625 -10.816406 4.890625 -9.546875 C 4.890625 -8.296875 5.128906 -7.191406 5.609375 -6.234375 C 6.085938 -5.273438 6.757812 -4.535156 7.625 -4.015625 C 8.488281 -3.503906 9.472656 -3.25 10.578125 -3.25 C 11.617188 -3.25 12.535156 -3.476562 13.328125 -3.9375 C 14.117188 -4.40625 14.734375 -5.09375 15.171875 -6 L 19.5625 -6 C 18.925781 -4.050781 17.8125 -2.535156 16.21875 -1.453125 C 14.625 -0.378906 12.753906 0.15625 10.609375 0.15625 C 8.796875 0.15625 7.15625 -0.253906 5.6875 -1.078125 C 4.21875 -1.898438 3.0625 -3.046875 2.21875 -4.515625 C 1.375 -5.992188 0.953125 -7.671875 0.953125 -9.546875 Z M 0.953125 -9.546875 "/></g></g></g><g fill="#222222" fill-opacity="1"><g transform="translate(277.66976, 153.255923)"><g><path d="M 5.703125 -19.046875 L 5.703125 0 L 1.875 0 L 1.875 -19.046875 Z M 5.703125 -19.046875 "/></g></g></g><g fill="#222222" fill-opacity="1"><g transform="translate(283.835316, 153.255923)"><g><path d="M 10.71875 0.1875 C 8.9375 0.1875 7.300781 -0.226562 5.8125 -1.0625 C 4.320312 -1.894531 3.140625 -3.050781 2.265625 -4.53125 C 1.390625 -6.019531 0.953125 -7.703125 0.953125 -9.578125 C 0.953125 -11.429688 1.390625 -13.097656 2.265625 -14.578125 C 3.140625 -16.066406 4.320312 -17.226562 5.8125 -18.0625 C 7.300781 -18.894531 8.9375 -19.3125 10.71875 -19.3125 C 12.519531 -19.3125 14.160156 -18.894531 15.640625 -18.0625 C 17.128906 -17.226562 18.304688 -16.066406 19.171875 -14.578125 C 20.035156 -13.097656 20.46875 -11.429688 20.46875 -9.578125 C 20.46875 -7.703125 20.035156 -6.019531 19.171875 -4.53125 C 18.304688 -3.050781 17.125 -1.894531 15.625 -1.0625 C 14.132812 -0.226562 12.5 0.1875 10.71875 0.1875 Z M 10.71875 -3.21875 C 11.863281 -3.21875 12.875 -3.476562 13.75 -4 C 14.625 -4.519531 15.304688 -5.257812 15.796875 -6.21875 C 16.285156 -7.1875 16.53125 -8.304688 16.53125 -9.578125 C 16.53125 -10.847656 16.285156 -11.957031 15.796875 -12.90625 C 15.304688 -13.863281 14.625 -14.597656 13.75 -15.109375 C 12.875 -15.617188 11.863281 -15.875 10.71875 -15.875 C 9.570312 -15.875 8.554688 -15.617188 7.671875 -15.109375 C 6.796875 -14.597656 6.113281 -13.863281 5.625 -12.90625 C 5.132812 -11.957031 4.890625 -10.847656 4.890625 -9.578125 C 4.890625 -8.304688 5.132812 -7.1875 5.625 -6.21875 C 6.113281 -5.257812 6.796875 -4.519531 7.671875 -4 C 8.554688 -3.476562 9.570312 -3.21875 10.71875 -3.21875 Z M 10.71875 -3.21875 "/></g></g></g><g fill="#222222" fill-opacity="1"><g transform="translate(303.833489, 153.255923)"><g><path d="M 8.453125 0.1875 C 7.128906 0.1875 5.9375 -0.0351562 4.875 -0.484375 C 3.8125 -0.941406 2.96875 -1.597656 2.34375 -2.453125 C 1.726562 -3.304688 1.410156 -4.316406 1.390625 -5.484375 L 5.484375 -5.484375 C 5.535156 -4.703125 5.8125 -4.082031 6.3125 -3.625 C 6.8125 -3.175781 7.5 -2.953125 8.375 -2.953125 C 9.269531 -2.953125 9.96875 -3.164062 10.46875 -3.59375 C 10.976562 -4.019531 11.234375 -4.578125 11.234375 -5.265625 C 11.234375 -5.828125 11.0625 -6.289062 10.71875 -6.65625 C 10.375 -7.019531 9.941406 -7.304688 9.421875 -7.515625 C 8.898438 -7.722656 8.1875 -7.957031 7.28125 -8.21875 C 6.039062 -8.570312 5.035156 -8.925781 4.265625 -9.28125 C 3.492188 -9.644531 2.832031 -10.179688 2.28125 -10.890625 C 1.726562 -11.609375 1.453125 -12.570312 1.453125 -13.78125 C 1.453125 -14.90625 1.734375 -15.882812 2.296875 -16.71875 C 2.859375 -17.5625 3.644531 -18.203125 4.65625 -18.640625 C 5.675781 -19.085938 6.84375 -19.3125 8.15625 -19.3125 C 10.125 -19.3125 11.71875 -18.832031 12.9375 -17.875 C 14.164062 -16.925781 14.847656 -15.597656 14.984375 -13.890625 L 10.78125 -13.890625 C 10.738281 -14.546875 10.457031 -15.085938 9.9375 -15.515625 C 9.425781 -15.941406 8.742188 -16.15625 7.890625 -16.15625 C 7.140625 -16.15625 6.539062 -15.960938 6.09375 -15.578125 C 5.644531 -15.191406 5.421875 -14.632812 5.421875 -13.90625 C 5.421875 -13.40625 5.585938 -12.984375 5.921875 -12.640625 C 6.265625 -12.304688 6.6875 -12.035156 7.1875 -11.828125 C 7.6875 -11.617188 8.390625 -11.378906 9.296875 -11.109375 C 10.535156 -10.742188 11.546875 -10.378906 12.328125 -10.015625 C 13.109375 -9.648438 13.78125 -9.101562 14.34375 -8.375 C 14.914062 -7.644531 15.203125 -6.691406 15.203125 -5.515625 C 15.203125 -4.492188 14.9375 -3.546875 14.40625 -2.671875 C 13.875 -1.796875 13.097656 -1.097656 12.078125 -0.578125 C 11.066406 -0.0664062 9.859375 0.1875 8.453125 0.1875 Z M 8.453125 0.1875 "/></g></g></g></svg>