<svg xmlns="http://www.w3.org/2000/svg" xmlns:xlink="http://www.w3.org/1999/xlink" width="446" zoomAndPan="magnify" viewBox="0 0 334.5 153.000002" height="204" preserveAspectRatio="xMidYMid meet" version="1.2"><defs/><g id="73dc58171b"><path style=" stroke:none;fill-rule:nonzero;fill:#f68712;fill-opacity:1;" d="M 62.621094 25.207031 C 60.015625 26.851562 56.644531 28.429688 52.382812 29.851562 C 42.921875 33.011719 32.960938 31.433594 23.492188 33.960938 C 21.097656 34.597656 17.535156 36.304688 15.375 38.535156 C 15.375 38.535156 21.980469 25.984375 41.226562 18.492188 C 42.960938 17.816406 44.800781 17.179688 46.75 16.597656 C 58.570312 13.066406 55.238281 8.101562 50.066406 9.5625 C 50.066406 9.5625 54.347656 6.539062 60.425781 6.769531 C 69.578125 7.117188 75.6875 16.980469 62.621094 25.207031 "/><path style=" stroke:none;fill-rule:nonzero;fill:#f68712;fill-opacity:1;" d="M 109.636719 25.285156 C 107.734375 33.316406 101.902344 40.375 95.316406 46.039062 C 88.027344 52.320312 79.808594 56.890625 74.996094 59.199219 C 43.578125 74.257812 12.050781 68.613281 8.308594 83.96875 C 8.308594 83.96875 0.832031 70.160156 18.46875 60.378906 C 28.179688 54.992188 33.625 52.207031 56.296875 43.964844 C 63.144531 41.476562 71.503906 38.4375 78.898438 33.570312 C 83.941406 30.253906 88.539062 26.089844 91.910156 20.671875 C 97.738281 11.292969 90.378906 1.980469 77.058594 1.195312 C 97.347656 0.0585938 113.082031 10.746094 109.636719 25.285156 "/><path style=" stroke:none;fill-rule:nonzero;fill:#3871c1;fill-opacity:1;" d="M 121.148438 81.035156 C 114.609375 86.09375 106.53125 90.867188 96.820312 95.171875 C 59.507812 111.707031 28.511719 108.085938 21.292969 123.902344 C 21.292969 123.902344 11.414062 103.164062 45.851562 91.925781 C 76.132812 82.046875 96.980469 72.535156 110.679688 63.480469 C 140.558594 43.730469 136.453125 26.121094 122.09375 11.453125 C 122.949219 11.972656 123.769531 12.480469 124.511719 12.953125 C 148.84375 30.054688 150.4375 58.386719 121.148438 81.035156 "/><path style=" stroke:none;fill-rule:nonzero;fill:#40b93c;fill-opacity:1;" d="M 151.082031 95.878906 C 146.820312 103.332031 140.582031 109.5625 133.113281 114.832031 C 124.148438 121.15625 113.40625 126.101562 102.175781 130.132812 C 87.425781 135.429688 51.191406 139.835938 50.023438 148.300781 C 50.023438 148.300781 45.402344 139.6875 61.792969 131.300781 C 80.609375 121.671875 100.414062 114.152344 119.089844 104.226562 C 120.914062 103.261719 124.414062 101.492188 128.523438 98.875 C 141.289062 90.75 159.960938 74.449219 152.679688 48.582031 C 152.949219 48.988281 166.253906 69.324219 151.082031 95.878906 "/><path style=" stroke:none;fill-rule:nonzero;fill:#40b93c;fill-opacity:1;" d="M 152.4375 103.714844 C 152.4375 103.714844 151.683594 114.859375 135.988281 129.246094 C 135.945312 129.289062 135.902344 129.328125 135.863281 129.363281 C 127.457031 137.039062 117.328125 142.585938 108.6875 146.222656 C 95.386719 151.824219 83.664062 151.921875 83.542969 151.957031 C 98.207031 147.359375 119.621094 135.21875 134.875 123.011719 C 143.429688 116.160156 150.046875 109.285156 152.4375 103.714844 "/><path style=" stroke:none;fill-rule:nonzero;fill:#fbc108;fill-opacity:1;" d="M 62.621094 25.207031 C 55.183594 22.101562 47.917969 19.960938 41.226562 18.492188 C 42.960938 17.816406 44.800781 17.179688 46.75 16.597656 C 58.570312 13.066406 55.238281 8.101562 50.066406 9.5625 C 50.066406 9.5625 54.347656 6.539062 60.425781 6.769531 C 69.578125 7.117188 75.6875 16.980469 62.621094 25.207031 "/><path style=" stroke:none;fill-rule:nonzero;fill:#fbc108;fill-opacity:1;" d="M 109.636719 25.285156 C 107.734375 33.316406 101.902344 40.375 95.316406 46.039062 C 90.003906 41.15625 84.484375 37.039062 78.898438 33.570312 C 83.941406 30.253906 88.539062 26.089844 91.910156 20.671875 C 97.738281 11.292969 90.378906 1.980469 77.058594 1.195312 C 97.347656 0.0585938 113.082031 10.746094 109.636719 25.285156 "/><path style=" stroke:none;fill-rule:nonzero;fill:#00adef;fill-opacity:1;" d="M 121.148438 81.035156 C 117.957031 74.570312 114.441406 68.738281 110.679688 63.480469 C 140.558594 43.730469 136.453125 26.121094 122.09375 11.453125 C 122.949219 11.972656 123.769531 12.480469 124.511719 12.953125 C 148.84375 30.054688 150.4375 58.386719 121.148438 81.035156 "/><path style=" stroke:none;fill-rule:nonzero;fill:#80cc28;fill-opacity:1;" d="M 152.4375 103.714844 C 152.4375 103.714844 151.683594 114.859375 135.988281 129.246094 C 135.640625 127.128906 135.269531 125.046875 134.875 123.011719 C 143.429688 116.160156 150.046875 109.285156 152.4375 103.714844 "/><path style=" stroke:none;fill-rule:nonzero;fill:#80cc28;fill-opacity:1;" d="M 133.113281 114.832031 C 131.769531 109.199219 130.230469 103.886719 128.523438 98.875 C 141.289062 90.75 159.960938 74.449219 152.679688 48.582031 C 152.949219 48.988281 166.253906 69.324219 151.082031 95.878906 C 146.820312 103.332031 140.582031 109.5625 133.113281 114.832031 "/><g style="fill:#212121;fill-opacity:1;"><g transform="translate(166.429264, 70.402131)"><path style="stroke:none" d="M 35.90625 0 L 35.90625 -13.390625 C 35.90625 -15.046875 35.96875 -16.742188 36.09375 -18.484375 C 36.21875 -20.234375 36.347656 -21.703125 36.484375 -22.890625 C 36.628906 -24.078125 36.722656 -24.832031 36.765625 -25.15625 L 36.546875 -25.15625 L 29.6875 0 L 20.359375 0 L 13.4375 -25.109375 L 13.21875 -25.109375 C 13.257812 -24.773438 13.359375 -24.023438 13.515625 -22.859375 C 13.679688 -21.691406 13.835938 -20.234375 13.984375 -18.484375 C 14.128906 -16.742188 14.203125 -15.046875 14.203125 -13.390625 L 14.203125 0 L 3.234375 0 L 3.234375 -37.140625 L 20.078125 -37.140625 L 25.703125 -15.703125 L 25.90625 -15.703125 L 31.46875 -37.140625 L 47.71875 -37.140625 L 47.71875 0 Z M 35.90625 0 "/></g></g><g style="fill:#212121;fill-opacity:1;"><g transform="translate(216.636992, 70.402131)"><path style="stroke:none" d="M 25.375 -27.640625 L 25.375 0 L 13.4375 0 L 13.4375 -27.640625 L 1.234375 -27.640625 L 1.234375 -37.140625 L 37.515625 -37.140625 L 37.515625 -27.640625 Z M 25.375 -27.640625 "/></g></g><g style="fill:#212121;fill-opacity:1;"><g transform="translate(254.85962, 70.402131)"><path style="stroke:none" d=""/></g></g><g style="fill:#212121;fill-opacity:1;"><g transform="translate(272.081345, 70.402131)"><path style="stroke:none" d="M 17.703125 -37.796875 C 23.140625 -37.796875 27.179688 -36.304688 29.828125 -33.328125 C 32.472656 -30.359375 33.796875 -25.742188 33.796875 -19.484375 C 33.796875 -12.398438 32.488281 -7.273438 29.875 -4.109375 C 27.269531 -0.941406 23.210938 0.640625 17.703125 0.640625 C 13.203125 0.640625 9.601562 -0.445312 6.90625 -2.625 C 4.207031 -4.800781 2.859375 -7.882812 2.859375 -11.875 L 12.46875 -11.875 L 12.46875 -11.5 C 12.46875 -10.09375 12.898438 -8.929688 13.765625 -8.015625 C 14.628906 -7.097656 15.890625 -6.640625 17.546875 -6.640625 C 19.234375 -6.640625 20.550781 -7.222656 21.5 -8.390625 C 22.457031 -9.566406 22.9375 -11.144531 22.9375 -13.125 L 22.9375 -16.25 C 21.894531 -15.3125 20.65625 -14.609375 19.21875 -14.140625 C 17.78125 -13.671875 16.410156 -13.4375 15.109375 -13.4375 C 12.628906 -13.4375 10.390625 -13.878906 8.390625 -14.765625 C 6.398438 -15.648438 4.828125 -16.945312 3.671875 -18.65625 C 2.515625 -20.363281 1.9375 -22.421875 1.9375 -24.828125 C 1.9375 -28.929688 3.347656 -32.117188 6.171875 -34.390625 C 9.003906 -36.660156 12.847656 -37.796875 17.703125 -37.796875 Z M 17.65625 -30.5 C 15.957031 -30.5 14.648438 -30.039062 13.734375 -29.125 C 12.816406 -28.207031 12.359375 -26.898438 12.359375 -25.203125 C 12.359375 -23.515625 12.804688 -22.210938 13.703125 -21.296875 C 14.609375 -20.378906 15.90625 -19.921875 17.59375 -19.921875 C 19.320312 -19.921875 20.644531 -20.359375 21.5625 -21.234375 C 22.476562 -22.117188 22.9375 -23.410156 22.9375 -25.109375 C 22.9375 -26.796875 22.476562 -28.113281 21.5625 -29.0625 C 20.644531 -30.019531 19.34375 -30.5 17.65625 -30.5 Z M 17.65625 -30.5 "/></g></g><path style="fill:none;stroke-width:4;stroke-linecap:butt;stroke-linejoin:miter;stroke:#212121;stroke-opacity:1;stroke-miterlimit:4;" d="M 0.000569561 1.998256 L 189.285167 1.998256 " transform="matrix(0.744023,0,0,0.744023,166.429264,73.446846)"/><g style="fill:#00adef;fill-opacity:1;"><g transform="translate(166.429264, 100.95183)"><path style="stroke:none" d="M 18.71875 -18.078125 L 18.71875 0 L 15.296875 0 L 6.28125 -10.984375 L 6.28125 0 L 2.140625 0 L 2.140625 -18.078125 L 5.609375 -18.078125 L 14.59375 -7.109375 L 14.59375 -18.078125 Z M 18.71875 -18.078125 "/></g></g><g style="fill:#00adef;fill-opacity:1;"><g transform="translate(185.951368, 100.95183)"><path style="stroke:none" d="M 10.90625 0.3125 C 9.019531 0.3125 7.320312 -0.09375 5.8125 -0.90625 C 4.3125 -1.71875 3.132812 -2.832031 2.28125 -4.25 C 1.425781 -5.664062 1 -7.265625 1 -9.046875 C 1 -10.816406 1.425781 -12.410156 2.28125 -13.828125 C 3.132812 -15.253906 4.3125 -16.367188 5.8125 -17.171875 C 7.320312 -17.984375 9.019531 -18.390625 10.90625 -18.390625 C 12.78125 -18.390625 14.460938 -17.984375 15.953125 -17.171875 C 17.453125 -16.367188 18.632812 -15.253906 19.5 -13.828125 C 20.363281 -12.410156 20.796875 -10.816406 20.796875 -9.046875 C 20.796875 -7.265625 20.363281 -5.664062 19.5 -4.25 C 18.632812 -2.832031 17.453125 -1.71875 15.953125 -0.90625 C 14.460938 -0.09375 12.78125 0.3125 10.90625 0.3125 Z M 10.90625 -3.25 C 11.96875 -3.25 12.925781 -3.492188 13.78125 -3.984375 C 14.644531 -4.472656 15.320312 -5.15625 15.8125 -6.03125 C 16.3125 -6.914062 16.5625 -7.921875 16.5625 -9.046875 C 16.5625 -10.160156 16.3125 -11.15625 15.8125 -12.03125 C 15.320312 -12.914062 14.644531 -13.601562 13.78125 -14.09375 C 12.925781 -14.582031 11.96875 -14.828125 10.90625 -14.828125 C 9.832031 -14.828125 8.863281 -14.582031 8 -14.09375 C 7.144531 -13.601562 6.472656 -12.914062 5.984375 -12.03125 C 5.492188 -11.15625 5.25 -10.160156 5.25 -9.046875 C 5.25 -7.921875 5.492188 -6.914062 5.984375 -6.03125 C 6.472656 -5.15625 7.144531 -4.472656 8 -3.984375 C 8.863281 -3.492188 9.832031 -3.25 10.90625 -3.25 Z M 10.90625 -3.25 "/></g></g><g style="fill:#00adef;fill-opacity:1;"><g transform="translate(206.403122, 100.95183)"><path style="stroke:none" d="M 5.890625 -14.671875 L 0.109375 -14.671875 L 0.109375 -18.078125 L 15.859375 -18.078125 L 15.859375 -14.671875 L 10.078125 -14.671875 L 10.078125 0 L 5.890625 0 Z M 5.890625 -14.671875 "/></g></g><g style="fill:#00adef;fill-opacity:1;"><g transform="translate(221.01878, 100.95183)"><path style="stroke:none" d="M 2.140625 -18.078125 L 6.328125 -18.078125 L 6.328125 0 L 2.140625 0 Z M 5.375 -23.265625 L 9.71875 -23.265625 L 5.03125 -19.546875 L 1.890625 -19.546875 Z M 5.375 -23.265625 "/></g></g><g style="fill:#00adef;fill-opacity:1;"><g transform="translate(228.145642, 100.95183)"><path style="stroke:none" d="M 10.796875 0.3125 C 8.953125 0.3125 7.285156 -0.0859375 5.796875 -0.890625 C 4.304688 -1.691406 3.132812 -2.800781 2.28125 -4.21875 C 1.425781 -5.644531 1 -7.253906 1 -9.046875 C 1 -10.828125 1.425781 -12.425781 2.28125 -13.84375 C 3.132812 -15.269531 4.304688 -16.382812 5.796875 -17.1875 C 7.285156 -17.988281 8.960938 -18.390625 10.828125 -18.390625 C 12.390625 -18.390625 13.800781 -18.113281 15.0625 -17.5625 C 16.332031 -17.007812 17.398438 -16.21875 18.265625 -15.1875 L 15.578125 -12.703125 C 14.347656 -14.117188 12.832031 -14.828125 11.03125 -14.828125 C 9.90625 -14.828125 8.90625 -14.582031 8.03125 -14.09375 C 7.15625 -13.601562 6.472656 -12.914062 5.984375 -12.03125 C 5.492188 -11.15625 5.25 -10.160156 5.25 -9.046875 C 5.25 -7.921875 5.492188 -6.914062 5.984375 -6.03125 C 6.472656 -5.15625 7.15625 -4.472656 8.03125 -3.984375 C 8.90625 -3.492188 9.90625 -3.25 11.03125 -3.25 C 12.832031 -3.25 14.347656 -3.960938 15.578125 -5.390625 L 18.265625 -2.921875 C 17.398438 -1.867188 16.328125 -1.066406 15.046875 -0.515625 C 13.773438 0.0351562 12.359375 0.3125 10.796875 0.3125 Z M 10.796875 0.3125 "/></g></g><g style="fill:#00adef;fill-opacity:1;"><g transform="translate(245.730995, 100.95183)"><path style="stroke:none" d="M 2.140625 -18.078125 L 6.328125 -18.078125 L 6.328125 0 L 2.140625 0 Z M 2.140625 -18.078125 "/></g></g><g style="fill:#00adef;fill-opacity:1;"><g transform="translate(252.857857, 100.95183)"><path style="stroke:none" d="M 14.046875 -3.875 L 5.65625 -3.875 L 4.0625 0 L -0.234375 0 L 7.828125 -18.078125 L 11.953125 -18.078125 L 20.046875 0 L 15.65625 0 Z M 12.734375 -7.046875 L 9.859375 -13.96875 L 7 -7.046875 Z M 12.734375 -7.046875 "/></g></g><g style="fill:#00adef;fill-opacity:1;"><g transform="translate(271.295386, 100.95183)"><path style="stroke:none" d="M 8.078125 0.3125 C 6.648438 0.3125 5.269531 0.117188 3.9375 -0.265625 C 2.601562 -0.660156 1.53125 -1.164062 0.71875 -1.78125 L 2.140625 -4.9375 C 2.921875 -4.363281 3.84375 -3.90625 4.90625 -3.5625 C 5.976562 -3.21875 7.046875 -3.046875 8.109375 -3.046875 C 9.296875 -3.046875 10.171875 -3.222656 10.734375 -3.578125 C 11.304688 -3.929688 11.59375 -4.398438 11.59375 -4.984375 C 11.59375 -5.410156 11.425781 -5.765625 11.09375 -6.046875 C 10.757812 -6.335938 10.328125 -6.566406 9.796875 -6.734375 C 9.273438 -6.910156 8.566406 -7.101562 7.671875 -7.3125 C 6.296875 -7.632812 5.164062 -7.957031 4.28125 -8.28125 C 3.40625 -8.613281 2.648438 -9.140625 2.015625 -9.859375 C 1.390625 -10.585938 1.078125 -11.554688 1.078125 -12.765625 C 1.078125 -13.804688 1.363281 -14.753906 1.9375 -15.609375 C 2.507812 -16.460938 3.363281 -17.140625 4.5 -17.640625 C 5.644531 -18.140625 7.046875 -18.390625 8.703125 -18.390625 C 9.859375 -18.390625 10.984375 -18.25 12.078125 -17.96875 C 13.179688 -17.695312 14.148438 -17.300781 14.984375 -16.78125 L 13.6875 -13.609375 C 12.019531 -14.554688 10.347656 -15.03125 8.671875 -15.03125 C 7.503906 -15.03125 6.640625 -14.835938 6.078125 -14.453125 C 5.523438 -14.078125 5.25 -13.582031 5.25 -12.96875 C 5.25 -12.34375 5.570312 -11.878906 6.21875 -11.578125 C 6.863281 -11.273438 7.847656 -10.976562 9.171875 -10.6875 C 10.546875 -10.363281 11.671875 -10.035156 12.546875 -9.703125 C 13.429688 -9.378906 14.1875 -8.863281 14.8125 -8.15625 C 15.4375 -7.457031 15.75 -6.503906 15.75 -5.296875 C 15.75 -4.265625 15.460938 -3.320312 14.890625 -2.46875 C 14.316406 -1.613281 13.453125 -0.9375 12.296875 -0.4375 C 11.140625 0.0625 9.734375 0.3125 8.078125 0.3125 Z M 8.078125 0.3125 "/></g></g><g style="fill:#00adef;fill-opacity:1;"><g transform="translate(286.427516, 100.95183)"><path style="stroke:none" d=""/></g></g><g style="fill:#212121;fill-opacity:1;"><g transform="translate(292.402779, 100.95183)"><path style="stroke:none" d="M 16.046875 0.3125 L 13.875 -1.703125 C 12.144531 -0.359375 10.128906 0.3125 7.828125 0.3125 C 6.515625 0.3125 5.332031 0.101562 4.28125 -0.3125 C 3.238281 -0.738281 2.421875 -1.332031 1.828125 -2.09375 C 1.234375 -2.851562 0.9375 -3.707031 0.9375 -4.65625 C 0.9375 -5.769531 1.25 -6.753906 1.875 -7.609375 C 2.5 -8.460938 3.507812 -9.273438 4.90625 -10.046875 C 4.25 -10.710938 3.773438 -11.351562 3.484375 -11.96875 C 3.191406 -12.582031 3.046875 -13.21875 3.046875 -13.875 C 3.046875 -14.75 3.273438 -15.519531 3.734375 -16.1875 C 4.203125 -16.863281 4.863281 -17.382812 5.71875 -17.75 C 6.570312 -18.125 7.554688 -18.3125 8.671875 -18.3125 C 10.242188 -18.3125 11.503906 -17.9375 12.453125 -17.1875 C 13.398438 -16.4375 13.875 -15.425781 13.875 -14.15625 C 13.875 -13.226562 13.59375 -12.398438 13.03125 -11.671875 C 12.46875 -10.953125 11.566406 -10.253906 10.328125 -9.578125 L 13.640625 -6.515625 C 14.035156 -7.335938 14.335938 -8.273438 14.546875 -9.328125 L 17.765625 -8.3125 C 17.421875 -6.71875 16.867188 -5.347656 16.109375 -4.203125 L 18.234375 -2.25 Z M 8.671875 -15.578125 C 8.078125 -15.578125 7.601562 -15.421875 7.25 -15.109375 C 6.894531 -14.796875 6.71875 -14.398438 6.71875 -13.921875 C 6.71875 -13.554688 6.8125 -13.210938 7 -12.890625 C 7.1875 -12.578125 7.554688 -12.15625 8.109375 -11.625 C 8.984375 -12.082031 9.59375 -12.5 9.9375 -12.875 C 10.28125 -13.25 10.453125 -13.648438 10.453125 -14.078125 C 10.453125 -14.523438 10.296875 -14.882812 9.984375 -15.15625 C 9.679688 -15.4375 9.242188 -15.578125 8.671875 -15.578125 Z M 8.109375 -2.84375 C 9.367188 -2.84375 10.5 -3.195312 11.5 -3.90625 L 7.125 -7.984375 C 6.320312 -7.515625 5.742188 -7.054688 5.390625 -6.609375 C 5.046875 -6.160156 4.875 -5.65625 4.875 -5.09375 C 4.875 -4.414062 5.164062 -3.867188 5.75 -3.453125 C 6.34375 -3.046875 7.128906 -2.84375 8.109375 -2.84375 Z M 8.109375 -2.84375 "/></g></g><g style="fill:#00adef;fill-opacity:1;"><g transform="translate(166.429264, 126.683076)"><path style="stroke:none" d="M 10.796875 0.3125 C 8.953125 0.3125 7.285156 -0.0859375 5.796875 -0.890625 C 4.304688 -1.691406 3.132812 -2.800781 2.28125 -4.21875 C 1.425781 -5.644531 1 -7.253906 1 -9.046875 C 1 -10.828125 1.425781 -12.425781 2.28125 -13.84375 C 3.132812 -15.269531 4.304688 -16.382812 5.796875 -17.1875 C 7.285156 -17.988281 8.960938 -18.390625 10.828125 -18.390625 C 12.390625 -18.390625 13.800781 -18.113281 15.0625 -17.5625 C 16.332031 -17.007812 17.398438 -16.21875 18.265625 -15.1875 L 15.578125 -12.703125 C 14.347656 -14.117188 12.832031 -14.828125 11.03125 -14.828125 C 9.90625 -14.828125 8.90625 -14.582031 8.03125 -14.09375 C 7.15625 -13.601562 6.472656 -12.914062 5.984375 -12.03125 C 5.492188 -11.15625 5.25 -10.160156 5.25 -9.046875 C 5.25 -7.921875 5.492188 -6.914062 5.984375 -6.03125 C 6.472656 -5.15625 7.15625 -4.472656 8.03125 -3.984375 C 8.90625 -3.492188 9.90625 -3.25 11.03125 -3.25 C 12.832031 -3.25 14.347656 -3.960938 15.578125 -5.390625 L 18.265625 -2.921875 C 17.398438 -1.867188 16.328125 -1.066406 15.046875 -0.515625 C 13.773438 0.0351562 12.359375 0.3125 10.796875 0.3125 Z M 10.796875 0.3125 "/></g></g><g style="fill:#00adef;fill-opacity:1;"><g transform="translate(184.014617, 126.683076)"><path style="stroke:none" d="M 10.90625 0.3125 C 9.019531 0.3125 7.320312 -0.09375 5.8125 -0.90625 C 4.3125 -1.71875 3.132812 -2.832031 2.28125 -4.25 C 1.425781 -5.664062 1 -7.265625 1 -9.046875 C 1 -10.816406 1.425781 -12.410156 2.28125 -13.828125 C 3.132812 -15.253906 4.3125 -16.367188 5.8125 -17.171875 C 7.320312 -17.984375 9.019531 -18.390625 10.90625 -18.390625 C 12.78125 -18.390625 14.460938 -17.984375 15.953125 -17.171875 C 17.453125 -16.367188 18.632812 -15.253906 19.5 -13.828125 C 20.363281 -12.410156 20.796875 -10.816406 20.796875 -9.046875 C 20.796875 -7.265625 20.363281 -5.664062 19.5 -4.25 C 18.632812 -2.832031 17.453125 -1.71875 15.953125 -0.90625 C 14.460938 -0.09375 12.78125 0.3125 10.90625 0.3125 Z M 10.90625 -3.25 C 11.96875 -3.25 12.925781 -3.492188 13.78125 -3.984375 C 14.644531 -4.472656 15.320312 -5.15625 15.8125 -6.03125 C 16.3125 -6.914062 16.5625 -7.921875 16.5625 -9.046875 C 16.5625 -10.160156 16.3125 -11.15625 15.8125 -12.03125 C 15.320312 -12.914062 14.644531 -13.601562 13.78125 -14.09375 C 12.925781 -14.582031 11.96875 -14.828125 10.90625 -14.828125 C 9.832031 -14.828125 8.863281 -14.582031 8 -14.09375 C 7.144531 -13.601562 6.472656 -12.914062 5.984375 -12.03125 C 5.492188 -11.15625 5.25 -10.160156 5.25 -9.046875 C 5.25 -7.921875 5.492188 -6.914062 5.984375 -6.03125 C 6.472656 -5.15625 7.144531 -4.472656 8 -3.984375 C 8.863281 -3.492188 9.832031 -3.25 10.90625 -3.25 Z M 10.90625 -3.25 "/></g></g><g style="fill:#00adef;fill-opacity:1;"><g transform="translate(204.466371, 126.683076)"><path style="stroke:none" d="M 18.59375 0 L 18.578125 -10.84375 L 13.25 -1.90625 L 11.359375 -1.90625 L 6.0625 -10.609375 L 6.0625 0 L 2.140625 0 L 2.140625 -18.078125 L 5.609375 -18.078125 L 12.375 -6.84375 L 19.03125 -18.078125 L 22.46875 -18.078125 L 22.515625 0 Z M 18.59375 0 "/></g></g><g style="fill:#00adef;fill-opacity:1;"><g transform="translate(227.784527, 126.683076)"><path style="stroke:none" d="M 16.140625 -3.359375 L 16.140625 0 L 2.140625 0 L 2.140625 -18.078125 L 15.8125 -18.078125 L 15.8125 -14.71875 L 6.296875 -14.71875 L 6.296875 -10.796875 L 14.703125 -10.796875 L 14.703125 -7.546875 L 6.296875 -7.546875 L 6.296875 -3.359375 Z M 10.125 -23.265625 L 14.46875 -23.265625 L 9.78125 -19.546875 L 6.640625 -19.546875 Z M 10.125 -23.265625 "/></g></g><g style="fill:#00adef;fill-opacity:1;"><g transform="translate(243.768822, 126.683076)"><path style="stroke:none" d="M 13.65625 0 L 10.171875 -5.03125 L 6.328125 -5.03125 L 6.328125 0 L 2.140625 0 L 2.140625 -18.078125 L 9.96875 -18.078125 C 11.570312 -18.078125 12.960938 -17.8125 14.140625 -17.28125 C 15.316406 -16.75 16.222656 -15.988281 16.859375 -15 C 17.503906 -14.019531 17.828125 -12.859375 17.828125 -11.515625 C 17.828125 -10.171875 17.503906 -9.015625 16.859375 -8.046875 C 16.210938 -7.078125 15.296875 -6.332031 14.109375 -5.8125 L 18.15625 0 Z M 13.578125 -11.515625 C 13.578125 -12.535156 13.25 -13.316406 12.59375 -13.859375 C 11.945312 -14.398438 10.992188 -14.671875 9.734375 -14.671875 L 6.328125 -14.671875 L 6.328125 -8.375 L 9.734375 -8.375 C 10.992188 -8.375 11.945312 -8.644531 12.59375 -9.1875 C 13.25 -9.738281 13.578125 -10.515625 13.578125 -11.515625 Z M 13.578125 -11.515625 "/></g></g><g style="fill:#00adef;fill-opacity:1;"><g transform="translate(261.405817, 126.683076)"><path style="stroke:none" d="M 10.796875 0.3125 C 8.953125 0.3125 7.285156 -0.0859375 5.796875 -0.890625 C 4.304688 -1.691406 3.132812 -2.800781 2.28125 -4.21875 C 1.425781 -5.644531 1 -7.253906 1 -9.046875 C 1 -10.828125 1.425781 -12.425781 2.28125 -13.84375 C 3.132812 -15.269531 4.304688 -16.382812 5.796875 -17.1875 C 7.285156 -17.988281 8.960938 -18.390625 10.828125 -18.390625 C 12.390625 -18.390625 13.800781 -18.113281 15.0625 -17.5625 C 16.332031 -17.007812 17.398438 -16.21875 18.265625 -15.1875 L 15.578125 -12.703125 C 14.347656 -14.117188 12.832031 -14.828125 11.03125 -14.828125 C 9.90625 -14.828125 8.90625 -14.582031 8.03125 -14.09375 C 7.15625 -13.601562 6.472656 -12.914062 5.984375 -12.03125 C 5.492188 -11.15625 5.25 -10.160156 5.25 -9.046875 C 5.25 -7.921875 5.492188 -6.914062 5.984375 -6.03125 C 6.472656 -5.15625 7.15625 -4.472656 8.03125 -3.984375 C 8.90625 -3.492188 9.90625 -3.25 11.03125 -3.25 C 12.832031 -3.25 14.347656 -3.960938 15.578125 -5.390625 L 18.265625 -2.921875 C 17.398438 -1.867188 16.328125 -1.066406 15.046875 -0.515625 C 13.773438 0.0351562 12.359375 0.3125 10.796875 0.3125 Z M 10.796875 0.3125 "/></g></g><g style="fill:#00adef;fill-opacity:1;"><g transform="translate(278.99117, 126.683076)"><path style="stroke:none" d="M 2.140625 -18.078125 L 6.328125 -18.078125 L 6.328125 0 L 2.140625 0 Z M 2.140625 -18.078125 "/></g></g><g style="fill:#00adef;fill-opacity:1;"><g transform="translate(286.118032, 126.683076)"><path style="stroke:none" d="M 10.90625 0.3125 C 9.019531 0.3125 7.320312 -0.09375 5.8125 -0.90625 C 4.3125 -1.71875 3.132812 -2.832031 2.28125 -4.25 C 1.425781 -5.664062 1 -7.265625 1 -9.046875 C 1 -10.816406 1.425781 -12.410156 2.28125 -13.828125 C 3.132812 -15.253906 4.3125 -16.367188 5.8125 -17.171875 C 7.320312 -17.984375 9.019531 -18.390625 10.90625 -18.390625 C 12.78125 -18.390625 14.460938 -17.984375 15.953125 -17.171875 C 17.453125 -16.367188 18.632812 -15.253906 19.5 -13.828125 C 20.363281 -12.410156 20.796875 -10.816406 20.796875 -9.046875 C 20.796875 -7.265625 20.363281 -5.664062 19.5 -4.25 C 18.632812 -2.832031 17.453125 -1.71875 15.953125 -0.90625 C 14.460938 -0.09375 12.78125 0.3125 10.90625 0.3125 Z M 10.90625 -3.25 C 11.96875 -3.25 12.925781 -3.492188 13.78125 -3.984375 C 14.644531 -4.472656 15.320312 -5.15625 15.8125 -6.03125 C 16.3125 -6.914062 16.5625 -7.921875 16.5625 -9.046875 C 16.5625 -10.160156 16.3125 -11.15625 15.8125 -12.03125 C 15.320312 -12.914062 14.644531 -13.601562 13.78125 -14.09375 C 12.925781 -14.582031 11.96875 -14.828125 10.90625 -14.828125 C 9.832031 -14.828125 8.863281 -14.582031 8 -14.09375 C 7.144531 -13.601562 6.472656 -12.914062 5.984375 -12.03125 C 5.492188 -11.15625 5.25 -10.160156 5.25 -9.046875 C 5.25 -7.921875 5.492188 -6.914062 5.984375 -6.03125 C 6.472656 -5.15625 7.144531 -4.472656 8 -3.984375 C 8.863281 -3.492188 9.832031 -3.25 10.90625 -3.25 Z M 10.90625 -3.25 "/></g></g><g style="fill:#00adef;fill-opacity:1;"><g transform="translate(306.569786, 126.683076)"><path style="stroke:none" d="M 8.078125 0.3125 C 6.648438 0.3125 5.269531 0.117188 3.9375 -0.265625 C 2.601562 -0.660156 1.53125 -1.164062 0.71875 -1.78125 L 2.140625 -4.9375 C 2.921875 -4.363281 3.84375 -3.90625 4.90625 -3.5625 C 5.976562 -3.21875 7.046875 -3.046875 8.109375 -3.046875 C 9.296875 -3.046875 10.171875 -3.222656 10.734375 -3.578125 C 11.304688 -3.929688 11.59375 -4.398438 11.59375 -4.984375 C 11.59375 -5.410156 11.425781 -5.765625 11.09375 -6.046875 C 10.757812 -6.335938 10.328125 -6.566406 9.796875 -6.734375 C 9.273438 -6.910156 8.566406 -7.101562 7.671875 -7.3125 C 6.296875 -7.632812 5.164062 -7.957031 4.28125 -8.28125 C 3.40625 -8.613281 2.648438 -9.140625 2.015625 -9.859375 C 1.390625 -10.585938 1.078125 -11.554688 1.078125 -12.765625 C 1.078125 -13.804688 1.363281 -14.753906 1.9375 -15.609375 C 2.507812 -16.460938 3.363281 -17.140625 4.5 -17.640625 C 5.644531 -18.140625 7.046875 -18.390625 8.703125 -18.390625 C 9.859375 -18.390625 10.984375 -18.25 12.078125 -17.96875 C 13.179688 -17.695312 14.148438 -17.300781 14.984375 -16.78125 L 13.6875 -13.609375 C 12.019531 -14.554688 10.347656 -15.03125 8.671875 -15.03125 C 7.503906 -15.03125 6.640625 -14.835938 6.078125 -14.453125 C 5.523438 -14.078125 5.25 -13.582031 5.25 -12.96875 C 5.25 -12.34375 5.570312 -11.878906 6.21875 -11.578125 C 6.863281 -11.273438 7.847656 -10.976562 9.171875 -10.6875 C 10.546875 -10.363281 11.671875 -10.035156 12.546875 -9.703125 C 13.429688 -9.378906 14.1875 -8.863281 14.8125 -8.15625 C 15.4375 -7.457031 15.75 -6.503906 15.75 -5.296875 C 15.75 -4.265625 15.460938 -3.320312 14.890625 -2.46875 C 14.316406 -1.613281 13.453125 -0.9375 12.296875 -0.4375 C 11.140625 0.0625 9.734375 0.3125 8.078125 0.3125 Z M 8.078125 0.3125 "/></g></g></g></svg>